<?xml version="1.0" encoding="utf-8" standalone="no"?>
<!DOCTYPE svg PUBLIC "-//W3C//DTD SVG 1.1//EN"
  "http://www.w3.org/Graphics/SVG/1.1/DTD/svg11.dtd">
<!-- Created with matplotlib (https://matplotlib.org/) -->
<svg height="231.84pt" version="1.1" viewBox="0 0 232.379806 231.84" width="232.379806pt" xmlns="http://www.w3.org/2000/svg" xmlns:xlink="http://www.w3.org/1999/xlink">
 <defs>
  <style type="text/css">
*{stroke-linecap:butt;stroke-linejoin:round;white-space:pre;}
  </style>
 </defs>
 <g id="figure_1">
  <g id="patch_1">
   <path d="M 0 231.84 
L 232.379806 231.84 
L 232.379806 0 
L 0 0 
z
" style="fill:#ffffff;"/>
  </g>
  <g id="axes_1">
   <g id="PathCollection_1">
    <defs>
     <path d="M 0 9.486833 
C 2.515938 9.486833 4.929167 8.48724 6.708204 6.708204 
C 8.48724 4.929167 9.486833 2.515938 9.486833 0 
C 9.486833 -2.515938 8.48724 -4.929167 6.708204 -6.708204 
C 4.929167 -8.48724 2.515938 -9.486833 0 -9.486833 
C -2.515938 -9.486833 -4.929167 -8.48724 -6.708204 -6.708204 
C -8.48724 -4.929167 -9.486833 -2.515938 -9.486833 0 
C -9.486833 2.515938 -8.48724 4.929167 -6.708204 6.708204 
C -4.929167 8.48724 -2.515938 9.486833 0 9.486833 
z
" id="mb2d863ae51" style="stroke:#1f77b4;"/>
    </defs>
    <g clip-path="url(#pd7d9d5cbb0)">
     <use style="fill:#1f77b4;stroke:#1f77b4;" x="114.496142" xlink:href="#mb2d863ae51" y="115.92"/>
     <use style="fill:#1f77b4;stroke:#1f77b4;" x="209.200584" xlink:href="#mb2d863ae51" y="115.92"/>
     <use style="fill:#1f77b4;stroke:#1f77b4;" x="19.791701" xlink:href="#mb2d863ae51" y="115.92"/>
     <use style="fill:#1f77b4;stroke:#1f77b4;" x="114.496142" xlink:href="#mb2d863ae51" y="210.624441"/>
     <use style="fill:#1f77b4;stroke:#1f77b4;" x="114.496142" xlink:href="#mb2d863ae51" y="21.215559"/>
    </g>
   </g>
   <g id="PathCollection_2">
    <defs>
     <path d="M 0 9.486833 
C 2.515938 9.486833 4.929167 8.48724 6.708204 6.708204 
C 8.48724 4.929167 9.486833 2.515938 9.486833 0 
C 9.486833 -2.515938 8.48724 -4.929167 6.708204 -6.708204 
C 4.929167 -8.48724 2.515938 -9.486833 0 -9.486833 
C -2.515938 -9.486833 -4.929167 -8.48724 -6.708204 -6.708204 
C -8.48724 -4.929167 -9.486833 -2.515938 -9.486833 0 
C -9.486833 2.515938 -8.48724 4.929167 -6.708204 6.708204 
C -4.929167 8.48724 -2.515938 9.486833 0 9.486833 
z
" id="m900d83ce51" style="stroke:#ff0000;"/>
    </defs>
    <g clip-path="url(#pd7d9d5cbb0)">
     <use style="fill:#ff0000;stroke:#ff0000;" x="114.496142" xlink:href="#m900d83ce51" y="115.92"/>
     <use style="fill:#ff0000;stroke:#ff0000;" x="209.200584" xlink:href="#m900d83ce51" y="115.92"/>
    </g>
   </g>
   <g id="line2d_1">
    <path clip-path="url(#pd7d9d5cbb0)" d="M 209.200584 115.92 
L 209.013706 109.973459 
L 208.453811 104.050386 
L 207.523108 98.174157 
L 206.225269 92.367963 
L 204.565418 86.654718 
L 202.550105 81.05697 
L 200.187283 75.59681 
L 197.486277 70.295788 
L 194.457747 65.174823 
L 191.113645 60.254126 
L 187.467168 55.553117 
L 183.532709 51.090349 
L 179.325793 46.883433 
L 174.863025 42.948974 
L 170.162016 39.302498 
L 165.24132 35.958396 
L 160.120355 32.929866 
L 154.819332 30.22886 
L 149.359172 27.866037 
L 143.761424 25.850724 
L 138.048179 24.190873 
L 132.241985 22.893035 
L 126.365756 21.962332 
L 120.442683 21.402436 
L 114.496142 21.215559 
L 108.549601 21.402436 
L 102.626528 21.962332 
L 96.7503 22.893035 
L 90.944106 24.190873 
L 85.230861 25.850724 
L 79.633112 27.866037 
L 74.172952 30.22886 
L 68.87193 32.929866 
L 63.750965 35.958396 
L 58.830268 39.302498 
L 54.12926 42.948974 
L 49.666491 46.883433 
L 45.459576 51.090349 
L 41.525116 55.553117 
L 37.87864 60.254126 
L 34.534538 65.174823 
L 31.506008 70.295788 
L 28.805002 75.59681 
L 26.44218 81.05697 
L 24.426866 86.654718 
L 22.767015 92.367963 
L 21.469177 98.174157 
L 20.538474 104.050386 
L 19.978579 109.973459 
L 19.791701 115.92 
L 19.978579 121.866541 
L 20.538474 127.789614 
L 21.469177 133.665843 
L 22.767015 139.472037 
L 24.426866 145.185282 
L 26.44218 150.78303 
L 28.805002 156.24319 
L 31.506008 161.544212 
L 34.534538 166.665177 
L 37.87864 171.585874 
L 41.525116 176.286883 
L 45.459576 180.749651 
L 49.666491 184.956567 
L 54.12926 188.891026 
L 58.830268 192.537502 
L 63.750965 195.881604 
L 68.87193 198.910134 
L 74.172952 201.61114 
L 79.633112 203.973963 
L 85.230861 205.989276 
L 90.944106 207.649127 
L 96.7503 208.946965 
L 102.626528 209.877668 
L 108.549601 210.437564 
L 114.496142 210.624441 
L 120.442683 210.437564 
L 126.365756 209.877668 
L 132.241985 208.946965 
L 138.048179 207.649127 
L 143.761424 205.989276 
L 149.359172 203.973963 
L 154.819332 201.61114 
L 160.120355 198.910134 
L 165.24132 195.881604 
L 170.162016 192.537502 
L 174.863025 188.891026 
L 179.325793 184.956567 
L 183.532709 180.749651 
L 187.467168 176.286883 
L 191.113645 171.585874 
L 194.457747 166.665177 
L 197.486277 161.544212 
L 200.187283 156.24319 
L 202.550105 150.78303 
L 204.565418 145.185282 
L 206.225269 139.472037 
L 207.523108 133.665843 
L 208.453811 127.789614 
L 209.013706 121.866541 
L 209.200584 115.92 
" style="fill:none;stroke:#0000ff;stroke-linecap:square;stroke-width:1.5;"/>
   </g>
  </g>
 </g>
 <defs>
  <clipPath id="pd7d9d5cbb0">
   <rect height="217.44" width="217.979806" x="7.2" y="7.2"/>
  </clipPath>
 </defs>
</svg>
