<?xml version="1.0" encoding="utf-8" standalone="no"?>
<!DOCTYPE svg PUBLIC "-//W3C//DTD SVG 1.1//EN"
  "http://www.w3.org/Graphics/SVG/1.1/DTD/svg11.dtd">
<!-- Created with matplotlib (https://matplotlib.org/) -->
<svg height="210.521299pt" version="1.1" viewBox="0 0 349.2 210.521299" width="349.2pt" xmlns="http://www.w3.org/2000/svg" xmlns:xlink="http://www.w3.org/1999/xlink">
 <defs>
  <style type="text/css">
*{stroke-linecap:butt;stroke-linejoin:round;white-space:pre;}
  </style>
 </defs>
 <g id="figure_1">
  <g id="patch_1">
   <path d="M 0 210.521299 
L 349.2 210.521299 
L 349.2 0 
L 0 0 
z
" style="fill:#ffffff;"/>
  </g>
  <g id="axes_1">
   <g id="PathCollection_1">
    <defs>
     <path d="M 0 9.486833 
C 2.515938 9.486833 4.929167 8.48724 6.708204 6.708204 
C 8.48724 4.929167 9.486833 2.515938 9.486833 0 
C 9.486833 -2.515938 8.48724 -4.929167 6.708204 -6.708204 
C 4.929167 -8.48724 2.515938 -9.486833 0 -9.486833 
C -2.515938 -9.486833 -4.929167 -8.48724 -6.708204 -6.708204 
C -8.48724 -4.929167 -9.486833 -2.515938 -9.486833 0 
C -9.486833 2.515938 -8.48724 4.929167 -6.708204 6.708204 
C -4.929167 8.48724 -2.515938 9.486833 0 9.486833 
z
" id="me0d9d22be2" style="stroke:#1f77b4;"/>
    </defs>
    <g clip-path="url(#pd48b679b49)">
     <use style="fill:#1f77b4;stroke:#1f77b4;" x="174.6" xlink:href="#me0d9d22be2" y="105.26065"/>
     <use style="fill:#1f77b4;stroke:#1f77b4;" x="237.635773" xlink:href="#me0d9d22be2" y="105.26065"/>
     <use style="fill:#1f77b4;stroke:#1f77b4;" x="111.564227" xlink:href="#me0d9d22be2" y="105.26065"/>
     <use style="fill:#1f77b4;stroke:#1f77b4;" x="174.6" xlink:href="#me0d9d22be2" y="168.296423"/>
     <use style="fill:#1f77b4;stroke:#1f77b4;" x="174.6" xlink:href="#me0d9d22be2" y="42.224877"/>
    </g>
   </g>
   <g id="PathCollection_2">
    <defs>
     <path d="M 0 9.486833 
C 2.515938 9.486833 4.929167 8.48724 6.708204 6.708204 
C 8.48724 4.929167 9.486833 2.515938 9.486833 0 
C 9.486833 -2.515938 8.48724 -4.929167 6.708204 -6.708204 
C 4.929167 -8.48724 2.515938 -9.486833 0 -9.486833 
C -2.515938 -9.486833 -4.929167 -8.48724 -6.708204 -6.708204 
C -8.48724 -4.929167 -9.486833 -2.515938 -9.486833 0 
C -9.486833 2.515938 -8.48724 4.929167 -6.708204 6.708204 
C -4.929167 8.48724 -2.515938 9.486833 0 9.486833 
z
" id="m07fe7bc9d0" style="stroke:#ff0000;"/>
    </defs>
    <g clip-path="url(#pd48b679b49)">
     <use style="fill:#ff0000;stroke:#ff0000;" x="111.564227" xlink:href="#m07fe7bc9d0" y="105.26065"/>
     <use style="fill:#ff0000;stroke:#ff0000;" x="237.635773" xlink:href="#m07fe7bc9d0" y="105.26065"/>
    </g>
   </g>
   <g id="line2d_1">
    <path clip-path="url(#pd48b679b49)" d="M 200.710272 105.26065 
L 200.534363 99.663123 
L 200.007329 94.087688 
L 199.131251 88.556347 
L 197.909585 83.09093 
L 196.347154 77.713007 
L 194.450124 72.443802 
L 192.22598 67.30411 
L 189.683502 62.314215 
L 186.832722 57.49381 
L 183.684892 52.861919 
L 180.252435 48.436822 
L 176.548897 44.235982 
L 172.588894 40.275979 
L 168.388055 36.572441 
L 163.962958 33.139984 
L 159.331067 29.992154 
L 154.510662 27.141375 
L 149.520767 24.598896 
L 144.381075 22.374753 
L 139.11187 20.477723 
L 133.733947 18.915291 
L 128.26853 17.693626 
L 122.737189 16.817548 
L 117.161753 16.290514 
L 111.564227 16.114605 
L 105.9667 16.290514 
L 100.391265 16.817548 
L 94.859924 17.693626 
L 89.394507 18.915291 
L 84.016584 20.477723 
L 78.747379 22.374753 
L 73.607687 24.598896 
L 68.617792 27.141375 
L 63.797387 29.992154 
L 59.165496 33.139984 
L 54.740399 36.572441 
L 50.53956 40.275979 
L 46.579557 44.235982 
L 42.876019 48.436822 
L 39.443561 52.861919 
L 36.295732 57.49381 
L 33.444952 62.314215 
L 30.902474 67.30411 
L 28.67833 72.443802 
L 26.7813 77.713007 
L 25.218869 83.09093 
L 23.997203 88.556347 
L 23.121125 94.087688 
L 22.594091 99.663123 
L 22.418182 105.26065 
L 22.594091 110.858176 
L 23.121125 116.433612 
L 23.997203 121.964953 
L 25.218869 127.43037 
L 26.7813 132.808293 
L 28.67833 138.077498 
L 30.902474 143.21719 
L 33.444952 148.207084 
L 36.295732 153.027489 
L 39.443561 157.65938 
L 42.876019 162.084477 
L 46.579557 166.285317 
L 50.53956 170.24532 
L 54.740399 173.948858 
L 59.165496 177.381315 
L 63.797387 180.529145 
L 68.617792 183.379925 
L 73.607687 185.922403 
L 78.747379 188.146546 
L 84.016584 190.043577 
L 89.394507 191.606008 
L 94.859924 192.827673 
L 100.391265 193.703752 
L 105.9667 194.230785 
L 111.564227 194.406695 
L 117.161753 194.230785 
L 122.737189 193.703752 
L 128.26853 192.827673 
L 133.733947 191.606008 
L 139.11187 190.043577 
L 144.381075 188.146546 
L 149.520767 185.922403 
L 154.510662 183.379925 
L 159.331067 180.529145 
L 163.962958 177.381315 
L 168.388055 173.948858 
L 172.588894 170.24532 
L 176.548897 166.285317 
L 180.252435 162.084477 
L 183.684892 157.65938 
L 186.832722 153.027489 
L 189.683502 148.207084 
L 192.22598 143.21719 
L 194.450124 138.077498 
L 196.347154 132.808293 
L 197.909585 127.43037 
L 199.131251 121.964953 
L 200.007329 116.433612 
L 200.534363 110.858176 
L 200.710272 105.26065 
" style="fill:none;stroke:#0000ff;stroke-linecap:square;stroke-width:1.5;"/>
   </g>
   <g id="line2d_2">
    <path clip-path="url(#pd48b679b49)" d="M 326.781818 105.26065 
L 326.605909 99.663123 
L 326.078875 94.087688 
L 325.202797 88.556347 
L 323.981131 83.09093 
L 322.4187 77.713007 
L 320.52167 72.443802 
L 318.297526 67.30411 
L 315.755048 62.314215 
L 312.904268 57.49381 
L 309.756439 52.861919 
L 306.323981 48.436822 
L 302.620443 44.235982 
L 298.66044 40.275979 
L 294.459601 36.572441 
L 290.034504 33.139984 
L 285.402613 29.992154 
L 280.582208 27.141375 
L 275.592313 24.598896 
L 270.452621 22.374753 
L 265.183416 20.477723 
L 259.805493 18.915291 
L 254.340076 17.693626 
L 248.808735 16.817548 
L 243.2333 16.290514 
L 237.635773 16.114605 
L 232.038247 16.290514 
L 226.462811 16.817548 
L 220.93147 17.693626 
L 215.466053 18.915291 
L 210.08813 20.477723 
L 204.818925 22.374753 
L 199.679233 24.598896 
L 194.689338 27.141375 
L 189.868933 29.992154 
L 185.237042 33.139984 
L 180.811945 36.572441 
L 176.611106 40.275979 
L 172.651103 44.235982 
L 168.947565 48.436822 
L 165.515108 52.861919 
L 162.367278 57.49381 
L 159.516498 62.314215 
L 156.97402 67.30411 
L 154.749876 72.443802 
L 152.852846 77.713007 
L 151.290415 83.09093 
L 150.068749 88.556347 
L 149.192671 94.087688 
L 148.665637 99.663123 
L 148.489728 105.26065 
L 148.665637 110.858176 
L 149.192671 116.433612 
L 150.068749 121.964953 
L 151.290415 127.43037 
L 152.852846 132.808293 
L 154.749876 138.077498 
L 156.97402 143.21719 
L 159.516498 148.207084 
L 162.367278 153.027489 
L 165.515108 157.65938 
L 168.947565 162.084477 
L 172.651103 166.285317 
L 176.611106 170.24532 
L 180.811945 173.948858 
L 185.237042 177.381315 
L 189.868933 180.529145 
L 194.689338 183.379925 
L 199.679233 185.922403 
L 204.818925 188.146546 
L 210.08813 190.043577 
L 215.466053 191.606008 
L 220.93147 192.827673 
L 226.462811 193.703752 
L 232.038247 194.230785 
L 237.635773 194.406695 
L 243.2333 194.230785 
L 248.808735 193.703752 
L 254.340076 192.827673 
L 259.805493 191.606008 
L 265.183416 190.043577 
L 270.452621 188.146546 
L 275.592313 185.922403 
L 280.582208 183.379925 
L 285.402613 180.529145 
L 290.034504 177.381315 
L 294.459601 173.948858 
L 298.66044 170.24532 
L 302.620443 166.285317 
L 306.323981 162.084477 
L 309.756439 157.65938 
L 312.904268 153.027489 
L 315.755048 148.207084 
L 318.297526 143.21719 
L 320.52167 138.077498 
L 322.4187 132.808293 
L 323.981131 127.43037 
L 325.202797 121.964953 
L 326.078875 116.433612 
L 326.605909 110.858176 
L 326.781818 105.26065 
" style="fill:none;stroke:#0000ff;stroke-linecap:square;stroke-width:1.5;"/>
   </g>
  </g>
 </g>
 <defs>
  <clipPath id="pd48b679b49">
   <rect height="196.121299" width="334.8" x="7.2" y="7.2"/>
  </clipPath>
 </defs>
</svg>
