<?xml version="1.0" encoding="utf-8" standalone="no"?>
<!DOCTYPE svg PUBLIC "-//W3C//DTD SVG 1.1//EN"
  "http://www.w3.org/Graphics/SVG/1.1/DTD/svg11.dtd">
<!-- Created with matplotlib (https://matplotlib.org/) -->
<svg height="231.84pt" version="1.1" viewBox="0 0 231.84 231.84" width="231.84pt" xmlns="http://www.w3.org/2000/svg" xmlns:xlink="http://www.w3.org/1999/xlink">
 <defs>
  <style type="text/css">
*{stroke-linecap:butt;stroke-linejoin:round;white-space:pre;}
  </style>
 </defs>
 <g id="figure_1">
  <g id="patch_1">
   <path d="M 0 231.84 
L 231.84 231.84 
L 231.84 0 
L 0 0 
z
" style="fill:#ffffff;"/>
  </g>
  <g id="axes_1">
   <g id="PathCollection_1">
    <defs>
     <path d="M 0 3 
C 0.795609 3 1.55874 2.683901 2.12132 2.12132 
C 2.683901 1.55874 3 0.795609 3 0 
C 3 -0.795609 2.683901 -1.55874 2.12132 -2.12132 
C 1.55874 -2.683901 0.795609 -3 0 -3 
C -0.795609 -3 -1.55874 -2.683901 -2.12132 -2.12132 
C -2.683901 -1.55874 -3 -0.795609 -3 0 
C -3 0.795609 -2.683901 1.55874 -2.12132 2.12132 
C -1.55874 2.683901 -0.795609 3 0 3 
z
" id="m6b79bd9a1d" style="stroke:#1f77b4;"/>
    </defs>
    <g clip-path="url(#p03859577a9)">
     <use style="fill:#1f77b4;stroke:#1f77b4;" x="158.278442" xlink:href="#m6b79bd9a1d" y="115.92"/>
     <use style="fill:#1f77b4;stroke:#1f77b4;" x="172.397922" xlink:href="#m6b79bd9a1d" y="115.92"/>
     <use style="fill:#1f77b4;stroke:#1f77b4;" x="186.517403" xlink:href="#m6b79bd9a1d" y="115.92"/>
     <use style="fill:#1f77b4;stroke:#1f77b4;" x="73.561558" xlink:href="#m6b79bd9a1d" y="115.92"/>
     <use style="fill:#1f77b4;stroke:#1f77b4;" x="59.442078" xlink:href="#m6b79bd9a1d" y="115.92"/>
     <use style="fill:#1f77b4;stroke:#1f77b4;" x="45.322597" xlink:href="#m6b79bd9a1d" y="115.92"/>
     <use style="fill:#1f77b4;stroke:#1f77b4;" x="115.92" xlink:href="#m6b79bd9a1d" y="158.278442"/>
     <use style="fill:#1f77b4;stroke:#1f77b4;" x="115.92" xlink:href="#m6b79bd9a1d" y="172.397922"/>
     <use style="fill:#1f77b4;stroke:#1f77b4;" x="115.92" xlink:href="#m6b79bd9a1d" y="186.517403"/>
     <use style="fill:#1f77b4;stroke:#1f77b4;" x="115.92" xlink:href="#m6b79bd9a1d" y="73.561558"/>
     <use style="fill:#1f77b4;stroke:#1f77b4;" x="115.92" xlink:href="#m6b79bd9a1d" y="59.442078"/>
     <use style="fill:#1f77b4;stroke:#1f77b4;" x="115.92" xlink:href="#m6b79bd9a1d" y="45.322597"/>
    </g>
   </g>
   <g id="PathCollection_2">
    <defs>
     <path d="M 0 3 
C 0.795609 3 1.55874 2.683901 2.12132 2.12132 
C 2.683901 1.55874 3 0.795609 3 0 
C 3 -0.795609 2.683901 -1.55874 2.12132 -2.12132 
C 1.55874 -2.683901 0.795609 -3 0 -3 
C -0.795609 -3 -1.55874 -2.683901 -2.12132 -2.12132 
C -2.683901 -1.55874 -3 -0.795609 -3 0 
C -3 0.795609 -2.683901 1.55874 -2.12132 2.12132 
C -1.55874 2.683901 -0.795609 3 0 3 
z
" id="m52d005cda1" style="stroke:#ff0000;"/>
    </defs>
    <g clip-path="url(#p03859577a9)">
     <use style="fill:#ff0000;stroke:#ff0000;" x="186.517403" xlink:href="#m52d005cda1" y="115.92"/>
     <use style="fill:#ff0000;stroke:#ff0000;" x="45.322597" xlink:href="#m52d005cda1" y="115.92"/>
     <use style="fill:#ff0000;stroke:#ff0000;" x="115.92" xlink:href="#m52d005cda1" y="186.517403"/>
     <use style="fill:#ff0000;stroke:#ff0000;" x="115.92" xlink:href="#m52d005cda1" y="45.322597"/>
    </g>
   </g>
   <g id="line2d_1">
    <path clip-path="url(#p03859577a9)" d="M 214.756364 115.92 
L 214.70064 114.146861 
L 214.533691 112.38072 
L 214.256174 110.628546 
L 213.869185 108.897256 
L 213.374251 107.193681 
L 212.773325 105.524545 
L 212.068778 103.896435 
L 211.263393 102.315777 
L 210.360346 100.788808 
L 209.363202 99.321555 
L 208.275896 97.919809 
L 207.102719 96.589101 
L 205.848302 95.334683 
L 204.517594 94.161507 
L 203.115847 93.074201 
L 201.648595 92.077057 
L 200.121626 91.17401 
L 198.540967 90.368624 
L 196.912857 89.664078 
L 195.243721 89.063152 
L 193.540147 88.568218 
L 191.808856 88.181229 
L 190.056683 87.903712 
L 188.290542 87.736762 
L 186.517403 87.681039 
L 184.744264 87.736762 
L 182.978122 87.903712 
L 181.225949 88.181229 
L 179.494659 88.568218 
L 177.791084 89.063152 
L 176.121948 89.664078 
L 174.493838 90.368624 
L 172.913179 91.17401 
L 171.386211 92.077057 
L 169.918958 93.074201 
L 168.517211 94.161507 
L 167.186504 95.334683 
L 165.932086 96.589101 
L 164.758909 97.919809 
L 163.671603 99.321555 
L 162.674459 100.788808 
L 161.771412 102.315777 
L 160.966027 103.896435 
L 160.261481 105.524545 
L 159.660555 107.193681 
L 159.16562 108.897256 
L 158.778631 110.628546 
L 158.501114 112.38072 
L 158.334165 114.146861 
L 158.278442 115.92 
L 158.334165 117.693139 
L 158.501114 119.45928 
L 158.778631 121.211454 
L 159.16562 122.942744 
L 159.660555 124.646319 
L 160.261481 126.315455 
L 160.966027 127.943565 
L 161.771412 129.524223 
L 162.674459 131.051192 
L 163.671603 132.518445 
L 164.758909 133.920191 
L 165.932086 135.250899 
L 167.186504 136.505317 
L 168.517211 137.678493 
L 169.918958 138.765799 
L 171.386211 139.762943 
L 172.913179 140.66599 
L 174.493838 141.471376 
L 176.121948 142.175922 
L 177.791084 142.776848 
L 179.494659 143.271782 
L 181.225949 143.658771 
L 182.978122 143.936288 
L 184.744264 144.103238 
L 186.517403 144.158961 
L 188.290542 144.103238 
L 190.056683 143.936288 
L 191.808856 143.658771 
L 193.540147 143.271782 
L 195.243721 142.776848 
L 196.912857 142.175922 
L 198.540967 141.471376 
L 200.121626 140.66599 
L 201.648595 139.762943 
L 203.115847 138.765799 
L 204.517594 137.678493 
L 205.848302 136.505317 
L 207.102719 135.250899 
L 208.275896 133.920191 
L 209.363202 132.518445 
L 210.360346 131.051192 
L 211.263393 129.524223 
L 212.068778 127.943565 
L 212.773325 126.315455 
L 213.374251 124.646319 
L 213.869185 122.942744 
L 214.256174 121.211454 
L 214.533691 119.45928 
L 214.70064 117.693139 
L 214.756364 115.92 
" style="fill:none;stroke:#0000ff;stroke-linecap:square;stroke-width:1.5;"/>
   </g>
   <g id="line2d_2">
    <path clip-path="url(#p03859577a9)" d="M 73.561558 115.92 
L 73.505835 114.146861 
L 73.338886 112.38072 
L 73.061369 110.628546 
L 72.67438 108.897256 
L 72.179445 107.193681 
L 71.578519 105.524545 
L 70.873973 103.896435 
L 70.068588 102.315777 
L 69.165541 100.788808 
L 68.168397 99.321555 
L 67.081091 97.919809 
L 65.907914 96.589101 
L 64.653496 95.334683 
L 63.322789 94.161507 
L 61.921042 93.074201 
L 60.453789 92.077057 
L 58.926821 91.17401 
L 57.346162 90.368624 
L 55.718052 89.664078 
L 54.048916 89.063152 
L 52.345341 88.568218 
L 50.614051 88.181229 
L 48.861878 87.903712 
L 47.095736 87.736762 
L 45.322597 87.681039 
L 43.549458 87.736762 
L 41.783317 87.903712 
L 40.031144 88.181229 
L 38.299853 88.568218 
L 36.596279 89.063152 
L 34.927143 89.664078 
L 33.299033 90.368624 
L 31.718374 91.17401 
L 30.191405 92.077057 
L 28.724153 93.074201 
L 27.322406 94.161507 
L 25.991698 95.334683 
L 24.737281 96.589101 
L 23.564104 97.919809 
L 22.476798 99.321555 
L 21.479654 100.788808 
L 20.576607 102.315777 
L 19.771222 103.896435 
L 19.066675 105.524545 
L 18.465749 107.193681 
L 17.970815 108.897256 
L 17.583826 110.628546 
L 17.306309 112.38072 
L 17.13936 114.146861 
L 17.083636 115.92 
L 17.13936 117.693139 
L 17.306309 119.45928 
L 17.583826 121.211454 
L 17.970815 122.942744 
L 18.465749 124.646319 
L 19.066675 126.315455 
L 19.771222 127.943565 
L 20.576607 129.524223 
L 21.479654 131.051192 
L 22.476798 132.518445 
L 23.564104 133.920191 
L 24.737281 135.250899 
L 25.991698 136.505317 
L 27.322406 137.678493 
L 28.724153 138.765799 
L 30.191405 139.762943 
L 31.718374 140.66599 
L 33.299033 141.471376 
L 34.927143 142.175922 
L 36.596279 142.776848 
L 38.299853 143.271782 
L 40.031144 143.658771 
L 41.783317 143.936288 
L 43.549458 144.103238 
L 45.322597 144.158961 
L 47.095736 144.103238 
L 48.861878 143.936288 
L 50.614051 143.658771 
L 52.345341 143.271782 
L 54.048916 142.776848 
L 55.718052 142.175922 
L 57.346162 141.471376 
L 58.926821 140.66599 
L 60.453789 139.762943 
L 61.921042 138.765799 
L 63.322789 137.678493 
L 64.653496 136.505317 
L 65.907914 135.250899 
L 67.081091 133.920191 
L 68.168397 132.518445 
L 69.165541 131.051192 
L 70.068588 129.524223 
L 70.873973 127.943565 
L 71.578519 126.315455 
L 72.179445 124.646319 
L 72.67438 122.942744 
L 73.061369 121.211454 
L 73.338886 119.45928 
L 73.505835 117.693139 
L 73.561558 115.92 
" style="fill:none;stroke:#0000ff;stroke-linecap:square;stroke-width:1.5;"/>
   </g>
   <g id="line2d_3">
    <path clip-path="url(#p03859577a9)" d="M 144.158961 45.322597 
L 144.103238 43.549458 
L 143.936288 41.783317 
L 143.658771 40.031144 
L 143.271782 38.299853 
L 142.776848 36.596279 
L 142.175922 34.927143 
L 141.471376 33.299033 
L 140.66599 31.718374 
L 139.762943 30.191405 
L 138.765799 28.724153 
L 137.678493 27.322406 
L 136.505317 25.991698 
L 135.250899 24.737281 
L 133.920191 23.564104 
L 132.518445 22.476798 
L 131.051192 21.479654 
L 129.524223 20.576607 
L 127.943565 19.771222 
L 126.315455 19.066675 
L 124.646319 18.465749 
L 122.942744 17.970815 
L 121.211454 17.583826 
L 119.45928 17.306309 
L 117.693139 17.13936 
L 115.92 17.083636 
L 114.146861 17.13936 
L 112.38072 17.306309 
L 110.628546 17.583826 
L 108.897256 17.970815 
L 107.193681 18.465749 
L 105.524545 19.066675 
L 103.896435 19.771222 
L 102.315777 20.576607 
L 100.788808 21.479654 
L 99.321555 22.476798 
L 97.919809 23.564104 
L 96.589101 24.737281 
L 95.334683 25.991698 
L 94.161507 27.322406 
L 93.074201 28.724153 
L 92.077057 30.191405 
L 91.17401 31.718374 
L 90.368624 33.299033 
L 89.664078 34.927143 
L 89.063152 36.596279 
L 88.568218 38.299853 
L 88.181229 40.031144 
L 87.903712 41.783317 
L 87.736762 43.549458 
L 87.681039 45.322597 
L 87.736762 47.095736 
L 87.903712 48.861878 
L 88.181229 50.614051 
L 88.568218 52.345341 
L 89.063152 54.048916 
L 89.664078 55.718052 
L 90.368624 57.346162 
L 91.17401 58.926821 
L 92.077057 60.453789 
L 93.074201 61.921042 
L 94.161507 63.322789 
L 95.334683 64.653496 
L 96.589101 65.907914 
L 97.919809 67.081091 
L 99.321555 68.168397 
L 100.788808 69.165541 
L 102.315777 70.068588 
L 103.896435 70.873973 
L 105.524545 71.578519 
L 107.193681 72.179445 
L 108.897256 72.67438 
L 110.628546 73.061369 
L 112.38072 73.338886 
L 114.146861 73.505835 
L 115.92 73.561558 
L 117.693139 73.505835 
L 119.45928 73.338886 
L 121.211454 73.061369 
L 122.942744 72.67438 
L 124.646319 72.179445 
L 126.315455 71.578519 
L 127.943565 70.873973 
L 129.524223 70.068588 
L 131.051192 69.165541 
L 132.518445 68.168397 
L 133.920191 67.081091 
L 135.250899 65.907914 
L 136.505317 64.653496 
L 137.678493 63.322789 
L 138.765799 61.921042 
L 139.762943 60.453789 
L 140.66599 58.926821 
L 141.471376 57.346162 
L 142.175922 55.718052 
L 142.776848 54.048916 
L 143.271782 52.345341 
L 143.658771 50.614051 
L 143.936288 48.861878 
L 144.103238 47.095736 
L 144.158961 45.322597 
" style="fill:none;stroke:#0000ff;stroke-linecap:square;stroke-width:1.5;"/>
   </g>
   <g id="line2d_4">
    <path clip-path="url(#p03859577a9)" d="M 144.158961 186.517403 
L 144.103238 184.744264 
L 143.936288 182.978122 
L 143.658771 181.225949 
L 143.271782 179.494659 
L 142.776848 177.791084 
L 142.175922 176.121948 
L 141.471376 174.493838 
L 140.66599 172.913179 
L 139.762943 171.386211 
L 138.765799 169.918958 
L 137.678493 168.517211 
L 136.505317 167.186504 
L 135.250899 165.932086 
L 133.920191 164.758909 
L 132.518445 163.671603 
L 131.051192 162.674459 
L 129.524223 161.771412 
L 127.943565 160.966027 
L 126.315455 160.261481 
L 124.646319 159.660555 
L 122.942744 159.16562 
L 121.211454 158.778631 
L 119.45928 158.501114 
L 117.693139 158.334165 
L 115.92 158.278442 
L 114.146861 158.334165 
L 112.38072 158.501114 
L 110.628546 158.778631 
L 108.897256 159.16562 
L 107.193681 159.660555 
L 105.524545 160.261481 
L 103.896435 160.966027 
L 102.315777 161.771412 
L 100.788808 162.674459 
L 99.321555 163.671603 
L 97.919809 164.758909 
L 96.589101 165.932086 
L 95.334683 167.186504 
L 94.161507 168.517211 
L 93.074201 169.918958 
L 92.077057 171.386211 
L 91.17401 172.913179 
L 90.368624 174.493838 
L 89.664078 176.121948 
L 89.063152 177.791084 
L 88.568218 179.494659 
L 88.181229 181.225949 
L 87.903712 182.978122 
L 87.736762 184.744264 
L 87.681039 186.517403 
L 87.736762 188.290542 
L 87.903712 190.056683 
L 88.181229 191.808856 
L 88.568218 193.540147 
L 89.063152 195.243721 
L 89.664078 196.912857 
L 90.368624 198.540967 
L 91.17401 200.121626 
L 92.077057 201.648595 
L 93.074201 203.115847 
L 94.161507 204.517594 
L 95.334683 205.848302 
L 96.589101 207.102719 
L 97.919809 208.275896 
L 99.321555 209.363202 
L 100.788808 210.360346 
L 102.315777 211.263393 
L 103.896435 212.068778 
L 105.524545 212.773325 
L 107.193681 213.374251 
L 108.897256 213.869185 
L 110.628546 214.256174 
L 112.38072 214.533691 
L 114.146861 214.70064 
L 115.92 214.756364 
L 117.693139 214.70064 
L 119.45928 214.533691 
L 121.211454 214.256174 
L 122.942744 213.869185 
L 124.646319 213.374251 
L 126.315455 212.773325 
L 127.943565 212.068778 
L 129.524223 211.263393 
L 131.051192 210.360346 
L 132.518445 209.363202 
L 133.920191 208.275896 
L 135.250899 207.102719 
L 136.505317 205.848302 
L 137.678493 204.517594 
L 138.765799 203.115847 
L 139.762943 201.648595 
L 140.66599 200.121626 
L 141.471376 198.540967 
L 142.175922 196.912857 
L 142.776848 195.243721 
L 143.271782 193.540147 
L 143.658771 191.808856 
L 143.936288 190.056683 
L 144.103238 188.290542 
L 144.158961 186.517403 
" style="fill:none;stroke:#0000ff;stroke-linecap:square;stroke-width:1.5;"/>
   </g>
  </g>
 </g>
 <defs>
  <clipPath id="p03859577a9">
   <rect height="217.44" width="217.44" x="7.2" y="7.2"/>
  </clipPath>
 </defs>
</svg>
