<?xml version="1.0" encoding="utf-8" standalone="no"?>
<!DOCTYPE svg PUBLIC "-//W3C//DTD SVG 1.1//EN"
  "http://www.w3.org/Graphics/SVG/1.1/DTD/svg11.dtd">
<!-- Created with matplotlib (https://matplotlib.org/) -->
<svg height="231.84pt" version="1.1" viewBox="0 0 229.58457 231.84" width="229.58457pt" xmlns="http://www.w3.org/2000/svg" xmlns:xlink="http://www.w3.org/1999/xlink">
 <defs>
  <style type="text/css">
*{stroke-linecap:butt;stroke-linejoin:round;white-space:pre;}
  </style>
 </defs>
 <g id="figure_1">
  <g id="patch_1">
   <path d="M 0 231.84 
L 229.58457 231.84 
L 229.58457 0 
L 0 0 
z
" style="fill:#ffffff;"/>
  </g>
  <g id="axes_1">
   <g id="PathCollection_1">
    <defs>
     <path d="M 0 3 
C 0.795609 3 1.55874 2.683901 2.12132 2.12132 
C 2.683901 1.55874 3 0.795609 3 0 
C 3 -0.795609 2.683901 -1.55874 2.12132 -2.12132 
C 1.55874 -2.683901 0.795609 -3 0 -3 
C -0.795609 -3 -1.55874 -2.683901 -2.12132 -2.12132 
C -2.683901 -1.55874 -3 -0.795609 -3 0 
C -3 0.795609 -2.683901 1.55874 -2.12132 2.12132 
C -1.55874 2.683901 -0.795609 3 0 3 
z
" id="mb513b57018" style="stroke:#1f77b4;"/>
    </defs>
    <g clip-path="url(#p2b89ccf33f)">
     <use style="fill:#1f77b4;stroke:#1f77b4;" x="191.52584" xlink:href="#mb513b57018" y="115.92"/>
     <use style="fill:#1f77b4;stroke:#1f77b4;" x="210.709229" xlink:href="#mb513b57018" y="115.92"/>
     <use style="fill:#1f77b4;stroke:#1f77b4;" x="38.05873" xlink:href="#mb513b57018" y="115.92"/>
     <use style="fill:#1f77b4;stroke:#1f77b4;" x="18.875341" xlink:href="#mb513b57018" y="115.92"/>
     <use style="fill:#1f77b4;stroke:#1f77b4;" x="114.792285" xlink:href="#mb513b57018" y="192.653555"/>
     <use style="fill:#1f77b4;stroke:#1f77b4;" x="114.792285" xlink:href="#mb513b57018" y="211.836944"/>
     <use style="fill:#1f77b4;stroke:#1f77b4;" x="114.792285" xlink:href="#mb513b57018" y="39.186445"/>
     <use style="fill:#1f77b4;stroke:#1f77b4;" x="114.792285" xlink:href="#mb513b57018" y="20.003056"/>
    </g>
   </g>
   <g id="PathCollection_2">
    <defs>
     <path d="M 0 3 
C 0.795609 3 1.55874 2.683901 2.12132 2.12132 
C 2.683901 1.55874 3 0.795609 3 0 
C 3 -0.795609 2.683901 -1.55874 2.12132 -2.12132 
C 1.55874 -2.683901 0.795609 -3 0 -3 
C -0.795609 -3 -1.55874 -2.683901 -2.12132 -2.12132 
C -2.683901 -1.55874 -3 -0.795609 -3 0 
C -3 0.795609 -2.683901 1.55874 -2.12132 2.12132 
C -1.55874 2.683901 -0.795609 3 0 3 
z
" id="m15d154dccf" style="stroke:#ff0000;"/>
    </defs>
    <g clip-path="url(#p2b89ccf33f)">
     <use style="fill:#ff0000;stroke:#ff0000;" x="210.709229" xlink:href="#m15d154dccf" y="115.92"/>
     <use style="fill:#ff0000;stroke:#ff0000;" x="18.875341" xlink:href="#m15d154dccf" y="115.92"/>
     <use style="fill:#ff0000;stroke:#ff0000;" x="114.792285" xlink:href="#m15d154dccf" y="211.836944"/>
     <use style="fill:#ff0000;stroke:#ff0000;" x="114.792285" xlink:href="#m15d154dccf" y="20.003056"/>
    </g>
   </g>
   <g id="line2d_1">
    <path clip-path="url(#p2b89ccf33f)" d="M 210.709229 115.92 
L 210.671375 114.715465 
L 210.557962 113.515684 
L 210.369438 112.325391 
L 210.106547 111.149285 
L 209.770327 109.992007 
L 209.362104 108.858124 
L 208.883489 107.75211 
L 208.336372 106.678332 
L 207.722911 105.641026 
L 207.045527 104.644287 
L 206.306895 103.692048 
L 205.509929 102.788067 
L 204.657773 101.935911 
L 203.753792 101.138945 
L 202.801553 100.400312 
L 201.804814 99.722929 
L 200.767508 99.109468 
L 199.69373 98.562351 
L 198.587716 98.083736 
L 197.453833 97.675513 
L 196.296555 97.339293 
L 195.120449 97.076402 
L 193.930156 96.887878 
L 192.730375 96.774465 
L 191.52584 96.736611 
L 190.321305 96.774465 
L 189.121524 96.887878 
L 187.931231 97.076402 
L 186.755125 97.339293 
L 185.597847 97.675513 
L 184.463964 98.083736 
L 183.35795 98.562351 
L 182.284172 99.109468 
L 181.246866 99.722929 
L 180.250127 100.400312 
L 179.297888 101.138945 
L 178.393907 101.935911 
L 177.541751 102.788067 
L 176.744785 103.692048 
L 176.006152 104.644287 
L 175.328769 105.641026 
L 174.715308 106.678332 
L 174.168191 107.75211 
L 173.689576 108.858124 
L 173.281353 109.992007 
L 172.945133 111.149285 
L 172.682242 112.325391 
L 172.493718 113.515684 
L 172.380305 114.715465 
L 172.342451 115.92 
L 172.380305 117.124535 
L 172.493718 118.324316 
L 172.682242 119.514609 
L 172.945133 120.690715 
L 173.281353 121.847993 
L 173.689576 122.981876 
L 174.168191 124.08789 
L 174.715308 125.161668 
L 175.328769 126.198974 
L 176.006152 127.195713 
L 176.744785 128.147952 
L 177.541751 129.051933 
L 178.393907 129.904089 
L 179.297888 130.701055 
L 180.250127 131.439688 
L 181.246866 132.117071 
L 182.284172 132.730532 
L 183.35795 133.277649 
L 184.463964 133.756264 
L 185.597847 134.164487 
L 186.755125 134.500707 
L 187.931231 134.763598 
L 189.121524 134.952122 
L 190.321305 135.065535 
L 191.52584 135.103389 
L 192.730375 135.065535 
L 193.930156 134.952122 
L 195.120449 134.763598 
L 196.296555 134.500707 
L 197.453833 134.164487 
L 198.587716 133.756264 
L 199.69373 133.277649 
L 200.767508 132.730532 
L 201.804814 132.117071 
L 202.801553 131.439688 
L 203.753792 130.701055 
L 204.657773 129.904089 
L 205.509929 129.051933 
L 206.306895 128.147952 
L 207.045527 127.195713 
L 207.722911 126.198974 
L 208.336372 125.161668 
L 208.883489 124.08789 
L 209.362104 122.981876 
L 209.770327 121.847993 
L 210.106547 120.690715 
L 210.369438 119.514609 
L 210.557962 118.324316 
L 210.671375 117.124535 
L 210.709229 115.92 
" style="fill:none;stroke:#0000ff;stroke-linecap:square;stroke-width:1.5;"/>
   </g>
   <g id="line2d_2">
    <path clip-path="url(#p2b89ccf33f)" d="M 57.242119 115.92 
L 57.204265 114.715465 
L 57.090852 113.515684 
L 56.902328 112.325391 
L 56.639437 111.149285 
L 56.303217 109.992007 
L 55.894994 108.858124 
L 55.416379 107.75211 
L 54.869262 106.678332 
L 54.255801 105.641026 
L 53.578417 104.644287 
L 52.839785 103.692048 
L 52.042819 102.788067 
L 51.190663 101.935911 
L 50.286682 101.138945 
L 49.334443 100.400312 
L 48.337704 99.722929 
L 47.300398 99.109468 
L 46.22662 98.562351 
L 45.120606 98.083736 
L 43.986723 97.675513 
L 42.829445 97.339293 
L 41.653339 97.076402 
L 40.463046 96.887878 
L 39.263265 96.774465 
L 38.05873 96.736611 
L 36.854195 96.774465 
L 35.654414 96.887878 
L 34.464121 97.076402 
L 33.288015 97.339293 
L 32.130737 97.675513 
L 30.996854 98.083736 
L 29.89084 98.562351 
L 28.817062 99.109468 
L 27.779756 99.722929 
L 26.783017 100.400312 
L 25.830778 101.138945 
L 24.926797 101.935911 
L 24.074641 102.788067 
L 23.277675 103.692048 
L 22.539042 104.644287 
L 21.861659 105.641026 
L 21.248198 106.678332 
L 20.701081 107.75211 
L 20.222466 108.858124 
L 19.814243 109.992007 
L 19.478023 111.149285 
L 19.215132 112.325391 
L 19.026608 113.515684 
L 18.913195 114.715465 
L 18.875341 115.92 
L 18.913195 117.124535 
L 19.026608 118.324316 
L 19.215132 119.514609 
L 19.478023 120.690715 
L 19.814243 121.847993 
L 20.222466 122.981876 
L 20.701081 124.08789 
L 21.248198 125.161668 
L 21.861659 126.198974 
L 22.539042 127.195713 
L 23.277675 128.147952 
L 24.074641 129.051933 
L 24.926797 129.904089 
L 25.830778 130.701055 
L 26.783017 131.439688 
L 27.779756 132.117071 
L 28.817062 132.730532 
L 29.89084 133.277649 
L 30.996854 133.756264 
L 32.130737 134.164487 
L 33.288015 134.500707 
L 34.464121 134.763598 
L 35.654414 134.952122 
L 36.854195 135.065535 
L 38.05873 135.103389 
L 39.263265 135.065535 
L 40.463046 134.952122 
L 41.653339 134.763598 
L 42.829445 134.500707 
L 43.986723 134.164487 
L 45.120606 133.756264 
L 46.22662 133.277649 
L 47.300398 132.730532 
L 48.337704 132.117071 
L 49.334443 131.439688 
L 50.286682 130.701055 
L 51.190663 129.904089 
L 52.042819 129.051933 
L 52.839785 128.147952 
L 53.578417 127.195713 
L 54.255801 126.198974 
L 54.869262 125.161668 
L 55.416379 124.08789 
L 55.894994 122.981876 
L 56.303217 121.847993 
L 56.639437 120.690715 
L 56.902328 119.514609 
L 57.090852 118.324316 
L 57.204265 117.124535 
L 57.242119 115.92 
" style="fill:none;stroke:#0000ff;stroke-linecap:square;stroke-width:1.5;"/>
   </g>
   <g id="line2d_3">
    <path clip-path="url(#p2b89ccf33f)" d="M 133.975674 39.186445 
L 133.93782 37.98191 
L 133.824407 36.782129 
L 133.635883 35.591836 
L 133.372992 34.41573 
L 133.036772 33.258452 
L 132.628549 32.124569 
L 132.149934 31.018555 
L 131.602817 29.944777 
L 130.989356 28.907471 
L 130.311972 27.910732 
L 129.57334 26.958493 
L 128.776374 26.054512 
L 127.924218 25.202356 
L 127.020237 24.40539 
L 126.067998 23.666757 
L 125.071259 22.989374 
L 124.033953 22.375913 
L 122.960175 21.828796 
L 121.854161 21.350181 
L 120.720278 20.941958 
L 119.563 20.605738 
L 118.386894 20.342847 
L 117.196601 20.154323 
L 115.99682 20.04091 
L 114.792285 20.003056 
L 113.58775 20.04091 
L 112.387969 20.154323 
L 111.197676 20.342847 
L 110.02157 20.605738 
L 108.864292 20.941958 
L 107.730409 21.350181 
L 106.624395 21.828796 
L 105.550617 22.375913 
L 104.513311 22.989374 
L 103.516572 23.666757 
L 102.564333 24.40539 
L 101.660352 25.202356 
L 100.808196 26.054512 
L 100.01123 26.958493 
L 99.272597 27.910732 
L 98.595214 28.907471 
L 97.981753 29.944777 
L 97.434636 31.018555 
L 96.956021 32.124569 
L 96.547798 33.258452 
L 96.211578 34.41573 
L 95.948687 35.591836 
L 95.760163 36.782129 
L 95.64675 37.98191 
L 95.608896 39.186445 
L 95.64675 40.39098 
L 95.760163 41.590761 
L 95.948687 42.781054 
L 96.211578 43.95716 
L 96.547798 45.114438 
L 96.956021 46.248321 
L 97.434636 47.354335 
L 97.981753 48.428113 
L 98.595214 49.465419 
L 99.272597 50.462158 
L 100.01123 51.414397 
L 100.808196 52.318378 
L 101.660352 53.170534 
L 102.564333 53.9675 
L 103.516572 54.706133 
L 104.513311 55.383516 
L 105.550617 55.996977 
L 106.624395 56.544094 
L 107.730409 57.022709 
L 108.864292 57.430932 
L 110.02157 57.767152 
L 111.197676 58.030043 
L 112.387969 58.218567 
L 113.58775 58.33198 
L 114.792285 58.369834 
L 115.99682 58.33198 
L 117.196601 58.218567 
L 118.386894 58.030043 
L 119.563 57.767152 
L 120.720278 57.430932 
L 121.854161 57.022709 
L 122.960175 56.544094 
L 124.033953 55.996977 
L 125.071259 55.383516 
L 126.067998 54.706133 
L 127.020237 53.9675 
L 127.924218 53.170534 
L 128.776374 52.318378 
L 129.57334 51.414397 
L 130.311972 50.462158 
L 130.989356 49.465419 
L 131.602817 48.428113 
L 132.149934 47.354335 
L 132.628549 46.248321 
L 133.036772 45.114438 
L 133.372992 43.95716 
L 133.635883 42.781054 
L 133.824407 41.590761 
L 133.93782 40.39098 
L 133.975674 39.186445 
" style="fill:none;stroke:#0000ff;stroke-linecap:square;stroke-width:1.5;"/>
   </g>
   <g id="line2d_4">
    <path clip-path="url(#p2b89ccf33f)" d="M 133.975674 192.653555 
L 133.93782 191.44902 
L 133.824407 190.249239 
L 133.635883 189.058946 
L 133.372992 187.88284 
L 133.036772 186.725562 
L 132.628549 185.591679 
L 132.149934 184.485665 
L 131.602817 183.411887 
L 130.989356 182.374581 
L 130.311972 181.377842 
L 129.57334 180.425603 
L 128.776374 179.521622 
L 127.924218 178.669466 
L 127.020237 177.8725 
L 126.067998 177.133867 
L 125.071259 176.456484 
L 124.033953 175.843023 
L 122.960175 175.295906 
L 121.854161 174.817291 
L 120.720278 174.409068 
L 119.563 174.072848 
L 118.386894 173.809957 
L 117.196601 173.621433 
L 115.99682 173.50802 
L 114.792285 173.470166 
L 113.58775 173.50802 
L 112.387969 173.621433 
L 111.197676 173.809957 
L 110.02157 174.072848 
L 108.864292 174.409068 
L 107.730409 174.817291 
L 106.624395 175.295906 
L 105.550617 175.843023 
L 104.513311 176.456484 
L 103.516572 177.133867 
L 102.564333 177.8725 
L 101.660352 178.669466 
L 100.808196 179.521622 
L 100.01123 180.425603 
L 99.272597 181.377842 
L 98.595214 182.374581 
L 97.981753 183.411887 
L 97.434636 184.485665 
L 96.956021 185.591679 
L 96.547798 186.725562 
L 96.211578 187.88284 
L 95.948687 189.058946 
L 95.760163 190.249239 
L 95.64675 191.44902 
L 95.608896 192.653555 
L 95.64675 193.85809 
L 95.760163 195.057871 
L 95.948687 196.248164 
L 96.211578 197.42427 
L 96.547798 198.581548 
L 96.956021 199.715431 
L 97.434636 200.821445 
L 97.981753 201.895223 
L 98.595214 202.932529 
L 99.272597 203.929268 
L 100.01123 204.881507 
L 100.808196 205.785488 
L 101.660352 206.637644 
L 102.564333 207.43461 
L 103.516572 208.173243 
L 104.513311 208.850626 
L 105.550617 209.464087 
L 106.624395 210.011204 
L 107.730409 210.489819 
L 108.864292 210.898042 
L 110.02157 211.234262 
L 111.197676 211.497153 
L 112.387969 211.685677 
L 113.58775 211.79909 
L 114.792285 211.836944 
L 115.99682 211.79909 
L 117.196601 211.685677 
L 118.386894 211.497153 
L 119.563 211.234262 
L 120.720278 210.898042 
L 121.854161 210.489819 
L 122.960175 210.011204 
L 124.033953 209.464087 
L 125.071259 208.850626 
L 126.067998 208.173243 
L 127.020237 207.43461 
L 127.924218 206.637644 
L 128.776374 205.785488 
L 129.57334 204.881507 
L 130.311972 203.929268 
L 130.989356 202.932529 
L 131.602817 201.895223 
L 132.149934 200.821445 
L 132.628549 199.715431 
L 133.036772 198.581548 
L 133.372992 197.42427 
L 133.635883 196.248164 
L 133.824407 195.057871 
L 133.93782 193.85809 
L 133.975674 192.653555 
" style="fill:none;stroke:#0000ff;stroke-linecap:square;stroke-width:1.5;"/>
   </g>
  </g>
 </g>
 <defs>
  <clipPath id="p2b89ccf33f">
   <rect height="217.44" width="215.18457" x="7.2" y="7.2"/>
  </clipPath>
 </defs>
</svg>
